<?xml version="1.0" standalone="no"?>
<!DOCTYPE svg PUBLIC "-//W3C//DTD SVG 20010904//EN"
 "http://www.w3.org/TR/2001/REC-SVG-20010904/DTD/svg10.dtd">
<svg version="1.0" xmlns="http://www.w3.org/2000/svg"
 width="260.000000pt" height="260.000000pt" viewBox="0 0 260.000000 260.000000"
 preserveAspectRatio="xMidYMid meet">
<metadata>
Created by potrace 1.11, written by Peter Selinger 2001-2013
</metadata>
<g transform="translate(0.000000,260.000000) scale(0.100000,-0.100000)"
fill="#000000" stroke="none">
<path d="M0 1300 l0 -1300 180 0 180 0 3 198 2 197 3 -197 2 -198 24 0 25 0 3
218 c3 207 4 219 26 257 35 59 60 83 117 110 49 24 58 25 210 23 l159 -3 11
-35 c17 -58 45 -101 104 -164 72 -76 210 -179 225 -168 6 4 44 30 83 56 135
89 217 177 243 261 21 66 17 65 192 65 148 0 162 -2 206 -24 65 -33 98 -71
122 -141 19 -53 21 -82 20 -257 l-1 -198 231 0 230 0 0 1300 0 1300 -1300 0
-1300 0 0 -1300z m420 1196 c0 -3 -7 -37 -15 -77 -9 -40 -13 -79 -11 -86 3 -7
1 -13 -3 -13 -5 0 -11 -7 -15 -15 -7 -21 -3 -19 28 10 15 14 24 25 21 25 -4 0
5 10 20 23 15 12 45 37 66 56 22 19 43 31 46 27 4 -4 3 -10 -3 -14 -6 -4 -15
-18 -19 -32 -10 -31 -35 -58 -35 -37 0 8 7 20 15 27 9 7 13 15 11 18 -3 2 -12
-2 -19 -9 -8 -8 -26 -22 -40 -32 -15 -11 -23 -25 -20 -33 5 -13 -135 -164
-152 -164 -23 0 57 274 91 311 16 17 34 25 34 15z m273 -16 c-3 -11 -9 -23
-14 -26 -5 -3 -10 -15 -10 -27 -1 -17 -2 -18 -6 -4 -6 23 -7 23 -49 -19 -28
-28 -33 -39 -22 -45 9 -6 5 -9 -14 -9 -14 0 -35 -2 -45 -5 -10 -3 -7 0 5 7 13
6 53 43 90 80 36 37 66 68 68 68 1 0 0 -9 -3 -20z m162 2 c-6 -4 -23 -26 -39
-49 -16 -24 -33 -43 -37 -43 -5 0 -9 -6 -9 -14 0 -8 -6 -21 -13 -28 -8 -7 -17
-20 -20 -28 -4 -8 -4 0 -1 19 6 33 37 75 48 64 3 -4 6 -1 6 5 0 6 7 18 16 26
30 31 -4 16 -39 -16 -40 -38 -92 -78 -101 -78 -16 0 -3 32 22 55 52 50 99 77
123 70 13 -5 19 -3 15 3 -6 10 8 20 29 21 7 0 7 -2 0 -7z m966 -121 c5 -14 14
-34 19 -43 15 -26 13 -45 -2 -30 -20 20 -33 14 -43 -20 -6 -21 -17 -34 -30
-36 -16 -3 -17 -1 -5 7 13 9 12 16 -10 56 -13 25 -30 45 -36 45 -6 0 -14 15
-18 33 -3 17 -9 44 -12 59 l-6 27 67 -36 c46 -24 69 -43 76 -62z m390 32 c50
-113 96 -293 82 -316 -2 -4 -24 32 -48 80 l-44 88 0 -57 c-1 -32 -5 -58 -11
-58 -5 0 -10 6 -10 13 0 15 -48 69 -75 85 -11 6 -14 12 -7 12 6 0 21 -9 32
-20 11 -11 23 -20 26 -20 8 0 -7 84 -16 90 -4 3 -9 21 -13 40 -3 19 -9 44 -13
54 -6 16 -4 18 12 12 49 -21 54 -20 54 13 0 17 2 31 5 31 3 0 15 -21 26 -47z
m-227 -14 c19 -11 41 -34 48 -50 7 -16 16 -29 20 -29 5 0 8 -11 8 -25 0 -14
-5 -25 -10 -25 -17 0 -60 47 -60 65 0 8 -4 15 -9 15 -5 0 -13 9 -16 20 -9 29
-25 25 -25 -6 0 -18 -6 -28 -21 -31 -14 -4 -19 -12 -17 -27 2 -11 9 -20 16
-18 16 3 15 -15 -1 -21 -22 -8 -40 29 -26 55 9 17 9 20 -4 15 -9 -3 -17 1 -20
14 -5 17 -3 18 16 4 33 -23 44 -18 51 25 3 22 8 40 11 40 2 0 20 -9 39 -21z
m-394 -44 c7 -9 10 -18 7 -21 -5 -6 -67 23 -67 31 0 12 49 3 60 -10z m-1086
-62 c-38 -38 -70 -68 -71 -67 -2 0 1 20 6 45 6 31 9 36 10 17 1 -27 2 -27 19
-10 38 35 94 82 100 82 3 0 -26 -30 -64 -67z m122 58 c25 20 23 5 -2 -19 l-24
-23 1 28 c0 15 3 22 6 15 4 -10 8 -10 19 -1z m1073 -17 c2 -2 -9 -4 -25 -5
l-29 -1 29 -12 c16 -7 24 -16 19 -19 -6 -4 -25 7 -43 23 l-33 29 39 -6 c22 -3
41 -7 43 -9z m421 -51 c0 -1 -4 -3 -9 -3 -16 0 -42 31 -35 41 5 8 44 -25 44
-38z m-380 -3 c18 -12 2 -12 -25 0 -13 6 -15 9 -5 9 8 0 22 -4 30 -9z m225 1
c3 -5 1 -12 -5 -16 -5 -3 -10 1 -10 9 0 18 6 21 15 7z m33 -60 c-3 -17 -6 -16
-38 10 -22 19 -27 27 -15 23 11 -4 26 -14 33 -22 10 -13 12 -11 13 19 1 23 3
27 6 12 2 -13 3 -32 1 -42z m-717 -191 c42 -52 108 -128 148 -168 39 -40 71
-75 71 -77 0 -3 -11 -5 -25 -5 -14 0 -28 -7 -31 -15 -5 -13 -10 -11 -28 8 -98
106 -171 212 -216 312 -33 73 -39 104 -12 65 9 -14 51 -68 93 -120z m-1044 98
c-3 -7 -5 -2 -5 12 0 14 2 19 5 13 2 -7 2 -19 0 -25z m728 -238 c36 -30 62
-56 59 -59 -3 -3 -44 -9 -92 -13 -48 -3 -100 -9 -117 -13 -29 -6 -31 -4 -47
42 -20 59 -48 202 -48 251 l0 36 90 -96 c49 -53 119 -119 155 -148z m-305 75
c20 -53 62 -136 94 -187 13 -22 -15 -52 -56 -62 -24 -6 -27 -3 -37 42 -34 152
-52 299 -33 277 4 -6 19 -37 32 -70z m654 -180 c76 -57 87 -73 64 -93 -28 -22
-68 1 -145 82 -71 75 -163 202 -163 224 0 6 38 -27 84 -73 47 -46 119 -109
160 -140z m254 83 c48 -44 52 -55 20 -60 -18 -2 -33 10 -67 52 -23 30 -50 68
-58 85 l-16 30 39 -34 c21 -19 58 -51 82 -73z m-1331 -80 c-3 -7 -5 -2 -5 12
0 14 2 19 5 13 2 -7 2 -19 0 -25z m373 -109 c0 -5 -7 -9 -15 -9 -19 0 -31 30
-40 96 l-6 49 30 -63 c17 -35 31 -67 31 -73z m1285 31 c16 -16 24 -30 18 -30
-6 0 -16 6 -23 14 -6 8 -21 16 -32 18 -27 4 -36 28 -11 28 11 0 32 -13 48 -30z
m-690 4 c17 -13 18 -16 5 -24 -22 -14 -46 -12 -59 4 -10 11 -8 17 6 25 23 13
24 13 48 -5z m-182 -13 c8 -6 33 -11 55 -10 69 5 87 -32 61 -126 -14 -51 -33
-73 -77 -85 -42 -11 -50 -7 -32 16 9 10 1 8 -24 -7 -33 -19 -46 -21 -109 -15
-40 3 -83 9 -96 13 -17 4 -22 3 -17 -6 11 -17 -69 -3 -115 20 -38 19 -49 45
-49 115 0 38 6 41 38 18 20 -14 22 -14 20 3 -3 41 3 61 21 66 11 2 24 0 30 -6
8 -8 14 -8 23 1 9 9 15 9 26 0 9 -8 16 -9 20 -1 4 6 16 13 27 16 35 10 183 1
198 -12z m737 9 c11 -7 2 -10 -32 -10 -26 0 -50 -5 -53 -10 -4 -6 -10 -8 -13
-6 -9 5 -109 -28 -120 -39 -4 -5 -1 -5 6 -1 8 5 12 -2 13 -21 l2 -28 4 28 c5
33 23 36 23 4 0 -13 9 -32 20 -42 11 -10 20 -29 20 -42 0 -19 5 -23 30 -23 45
0 90 45 97 98 3 23 8 42 11 42 12 0 52 -44 52 -57 0 -7 4 -13 9 -13 5 0 8 19
7 42 -2 32 -7 44 -24 51 -34 15 -26 30 10 21 43 -9 76 -31 83 -55 7 -22 -2
-108 -13 -126 -9 -14 -67 -43 -86 -43 -10 0 -13 6 -9 16 5 14 2 14 -27 -1 -37
-19 -168 -26 -209 -11 -18 6 -22 5 -16 -4 6 -10 -2 -12 -34 -7 -54 7 -89 31
-106 70 -18 45 -25 116 -12 124 6 4 41 7 78 7 39 1 72 6 82 14 8 7 31 14 51
15 19 2 38 6 42 10 11 10 97 8 114 -3z m-460 -47 c25 -14 34 -15 37 -5 10 26
21 10 28 -40 9 -65 36 -120 68 -141 65 -43 282 -47 394 -7 74 26 85 38 91 100
4 41 9 54 27 62 19 8 27 7 43 -8 19 -18 19 -22 5 -94 -15 -80 -48 -230 -59
-267 -10 -35 8 -27 34 15 l23 37 -6 -35 c-10 -59 -37 -183 -50 -230 -49 -177
-42 -163 -119 -227 -39 -33 -136 -104 -216 -157 l-145 -97 -201 3 c-177 3
-203 5 -218 21 -10 10 -55 46 -100 80 -157 119 -231 179 -247 200 -24 31 -129
388 -144 487 l-7 45 35 -40 c20 -22 36 -43 37 -47 0 -8 30 -12 30 -4 0 2 -7
17 -15 32 -26 50 -16 55 24 11 22 -23 43 -39 46 -35 4 4 -7 41 -25 83 -17 43
-30 78 -28 80 2 2 30 -6 63 -17 49 -18 85 -21 195 -22 204 -1 249 27 269 164
5 34 12 48 31 57 34 17 63 16 100 -4z m-898 -40 c11 -10 28 -34 38 -54 23 -43
53 -157 46 -172 -2 -7 -5 -4 -5 6 -1 9 -5 25 -11 35 -5 9 -19 41 -31 70 -37
90 -112 132 -137 77 -21 -45 -13 -135 10 -135 7 0 8 15 4 40 -13 80 18 116 60
69 18 -20 18 -21 -6 -39 -30 -23 -20 -38 15 -22 21 10 26 9 35 -8 15 -29 13
-39 -20 -77 -22 -24 -30 -44 -30 -71 -1 -30 -3 -34 -11 -19 -11 19 -29 23 -29
6 0 -19 58 -95 86 -114 23 -15 35 -16 66 -8 28 7 41 7 48 -2 17 -20 16 -57 -2
-68 -40 -26 -160 70 -210 167 -57 111 -64 272 -15 334 14 18 73 9 99 -15z
m1856 2 c41 -52 34 -207 -14 -310 -47 -98 -163 -196 -213 -180 -25 8 -28 46
-6 68 12 12 22 13 50 4 46 -14 71 0 119 64 38 52 41 85 3 52 -18 -16 -20 -16
-14 -1 10 27 -12 86 -39 107 -24 19 -25 22 -12 51 9 21 18 28 28 24 38 -16 50
-16 50 0 0 9 -6 16 -14 16 -8 0 -18 5 -21 11 -9 14 24 49 47 49 20 0 23 -16
19 -87 -2 -24 2 -43 7 -43 26 0 30 98 5 136 -13 21 -22 25 -45 20 -31 -6 -33
-4 -18 25 15 26 45 24 68 -6z m-108 -274 c0 -68 -11 -109 -31 -114 -24 -6 -24
-5 1 35 24 39 25 54 5 92 -8 15 -15 35 -15 44 0 13 3 12 20 -3 13 -12 20 -31
20 -54z m-1700 50 c0 -5 -7 -22 -15 -37 -19 -38 -19 -52 4 -97 18 -36 17 -44
-5 -29 -26 16 -34 132 -12 159 12 15 28 17 28 4z m1639 -37 c27 -34 26 -50 -1
-91 -15 -21 -31 -33 -47 -33 -16 0 -21 4 -18 14 3 8 11 41 18 75 6 34 15 61
20 61 4 0 17 -12 28 -26z m-1580 -46 c15 -62 14 -78 -3 -78 -18 0 -56 52 -56
77 0 24 30 67 40 56 4 -4 12 -29 19 -55z m1458 -565 c-3 -10 -5 -4 -5 12 0 17
2 24 5 18 2 -7 2 -21 0 -30z m-1169 -58 c-3 -3 -9 2 -12 12 -6 14 -5 15 5 6 7
-7 10 -15 7 -18z m1149 19 c-3 -3 -12 -4 -19 -1 -8 3 -5 6 6 6 11 1 17 -2 13
-5z m-14 -21 c-23 -2 -64 -2 -90 0 -26 2 -7 3 42 3 50 0 71 -1 48 -3z m-415
-169 c-41 -58 -111 -121 -190 -173 -61 -40 -62 -40 -92 -23 -37 21 -232 210
-224 217 3 3 16 1 30 -4 39 -14 296 -23 377 -12 42 5 81 16 90 25 8 9 21 16
29 16 8 0 1 -17 -20 -46z m689 -416 c-1 -46 -3 -11 -3 77 0 88 2 125 3 83 2
-42 2 -114 0 -160z"/>
<path d="M739 1654 c-5 -6 -6 -19 -3 -28 6 -15 8 -15 21 4 18 25 53 27 54 3 0
-11 3 -13 6 -5 9 24 22 12 25 -25 2 -32 8 -41 35 -53 41 -19 43 -34 3 -26 -42
8 -38 -1 6 -13 50 -14 87 6 110 60 l18 40 29 -33 29 -33 -7 30 c-9 41 -42 74
-79 80 -70 11 -237 10 -247 -1z"/>
<path d="M1140 1401 c-6 -22 -23 -49 -38 -61 -59 -47 -68 -105 -23 -151 17
-16 40 -29 54 -29 14 0 38 -6 55 -13 25 -10 27 -14 15 -26 -8 -7 -17 -10 -20
-7 -4 4 -13 -8 -20 -25 -14 -34 -9 -54 7 -29 7 10 10 11 10 3 0 -24 18 -13 29
17 12 36 24 40 15 5 -4 -15 -2 -25 4 -25 16 0 25 39 13 54 -9 11 -3 15 33 20
24 4 50 13 56 21 7 9 23 12 45 8 29 -5 39 -1 65 26 27 27 31 36 25 64 -10 42
-43 107 -55 107 -15 0 -12 -22 10 -65 22 -43 24 -63 10 -85 -7 -12 -12 -12
-22 -2 -17 17 -53 15 -69 -4 -7 -8 -24 -21 -38 -29 -23 -11 -38 -12 -86 -6 -6
0 -25 14 -43 31 -30 27 -62 31 -62 8 0 -6 -6 -5 -15 2 -26 22 -18 63 21 104
53 57 78 126 44 126 -5 0 -14 -18 -20 -39z"/>
<path d="M1284 1119 c-6 -10 17 -59 28 -59 5 0 6 9 3 20 -3 11 -2 20 4 20 5 0
13 -9 16 -20 8 -24 25 -27 25 -4 0 12 5 11 20 -7 24 -30 26 -8 3 32 -20 33
-33 37 -33 12 -1 -16 -2 -16 -13 -2 -12 16 -44 21 -53 8z"/>
<path d="M1087 1090 c-19 -32 -22 -53 -6 -48 14 5 40 66 30 72 -4 3 -15 -8
-24 -24z"/>
<path d="M1128 1095 c-22 -29 -22 -35 -3 -35 8 0 15 7 15 15 0 8 5 15 10 15 6
0 10 7 10 15 0 22 -12 18 -32 -10z"/>
<path d="M1400 1106 c0 -8 9 -24 20 -37 17 -21 21 -22 30 -9 7 11 10 11 10 2
0 -7 6 -12 13 -11 6 1 20 -1 30 -6 27 -11 30 -1 7 25 -22 25 -61 34 -71 17 -4
-5 -10 0 -14 12 -7 23 -25 29 -25 7z"/>
<path d="M1036 1085 c-9 -13 -16 -30 -16 -36 0 -14 37 18 51 43 15 29 -16 22
-35 -7z"/>
<path d="M1002 1010 c-14 -22 -16 -40 -4 -40 13 0 34 42 25 51 -5 5 -14 0 -21
-11z"/>
<path d="M1530 1008 c0 -8 5 -19 12 -26 9 -9 9 -12 -1 -12 -8 0 -11 -6 -7 -15
3 -8 2 -15 -3 -15 -9 0 -80 33 -119 54 -14 9 -65 13 -143 14 l-121 1 -45 -35
c-24 -19 -48 -34 -53 -34 -5 0 -16 -3 -26 -7 -11 -4 -15 -3 -10 5 3 6 2 13 -3
16 -14 9 -42 -35 -31 -49 5 -6 7 -21 3 -33 -6 -26 5 -29 22 -5 12 16 16 16 77
-1 86 -23 306 -18 391 9 l57 18 25 -23 c28 -27 47 -20 22 8 -10 10 -17 31 -17
45 0 15 0 38 0 51 0 13 -7 29 -15 36 -12 10 -15 10 -15 -2z m-128 -36 c11 -11
-127 -25 -202 -21 -25 1 -56 -1 -70 -5 -24 -7 -24 -7 5 17 28 24 35 25 144 21
62 -1 118 -7 123 -12z m72 -59 c3 -4 -20 -15 -51 -25 -79 -24 -245 -25 -322 0
l-56 17 40 6 c57 9 380 10 389 2z"/>
<path d="M813 960 c4 -14 7 -28 7 -32 0 -5 5 -8 10 -8 16 0 11 36 -7 51 -15
13 -16 11 -10 -11z"/>
<path d="M1656 945 c-7 -29 -1 -45 18 -45 8 0 11 12 8 35 -5 41 -17 46 -26 10z"/>
<path d="M996 835 c-9 -13 -16 -29 -16 -35 0 -19 16 -10 33 19 21 36 6 51 -17
16z"/>
<path d="M1530 843 c1 -13 38 -53 49 -53 16 0 13 12 -8 38 -19 21 -41 30 -41
15z"/>
<path d="M1238 813 c-35 -9 -17 -24 24 -21 47 3 67 29 21 27 -15 -1 -36 -3
-45 -6z"/>
<path d="M998 774 c-13 -26 -14 -34 -4 -34 17 0 42 48 30 59 -5 6 -16 -4 -26
-25z"/>
<path d="M1516 802 c-7 -11 31 -62 46 -62 14 0 9 14 -15 44 -15 19 -26 25 -31
18z"/>
<path d="M1021 744 c-19 -25 -20 -44 -2 -44 11 0 36 59 28 66 -2 3 -14 -7 -26
-22z"/>
<path d="M1260 755 c0 -30 11 -65 21 -65 14 0 10 44 -6 66 -14 19 -14 19 -15
-1z"/>
<path d="M1460 746 c0 -8 9 -24 21 -37 l21 -24 -6 25 c-3 14 -6 28 -6 31 0 14
-30 18 -30 5z"/>
<path d="M1500 743 c1 -21 27 -59 36 -51 6 6 -23 68 -31 68 -3 0 -5 -8 -5 -17z"/>
<path d="M1155 720 c-17 -34 -18 -40 -6 -40 5 0 17 14 25 32 19 37 19 38 6 38
-5 0 -16 -13 -25 -30z"/>
<path d="M1097 703 c-2 -10 -8 -26 -12 -35 -12 -30 13 -20 30 12 18 36 19 40
1 40 -7 0 -16 -8 -19 -17z"/>
<path d="M1197 688 c-8 -55 8 -54 19 0 4 19 2 32 -4 32 -5 0 -12 -15 -15 -32z"/>
<path d="M1300 713 c0 -14 36 -63 42 -58 10 10 -15 65 -29 65 -7 0 -13 -3 -13
-7z"/>
<path d="M1400 708 c0 -21 30 -59 42 -52 6 4 14 0 19 -7 4 -7 11 -10 15 -7 9
10 -19 68 -33 68 -6 0 -18 3 -27 6 -10 4 -16 1 -16 -8z"/>
<path d="M1040 684 c-16 -42 -11 -51 10 -19 22 34 25 45 10 45 -6 0 -15 -12
-20 -26z"/>
<path d="M1234 688 c3 -13 6 -29 6 -35 0 -7 5 -13 10 -13 11 0 13 30 4 54 -9
25 -27 19 -20 -6z"/>
<path d="M1370 676 c0 -18 36 -63 44 -55 8 8 -23 69 -35 69 -5 0 -9 -6 -9 -14z"/>
<path d="M1132 638 c-6 -17 -9 -34 -7 -37 8 -7 34 32 35 52 0 28 -15 20 -28
-15z"/>
<path d="M1290 648 c0 -25 12 -58 19 -53 10 6 1 65 -10 65 -5 0 -9 -6 -9 -12z"/>
</g>
</svg>
